<svg xmlns="http://www.w3.org/2000/svg" xmlns:xlink="http://www.w3.org/1999/xlink" width="140" height="140" viewBox="0 0 140 140">
    <defs>
        <filter id="96j2x6sgja" width="207.1%" height="207.1%" x="-53.6%" y="-42.9%" filterUnits="objectBoundingBox">
            <feOffset dy="1" in="SourceAlpha" result="shadowOffsetOuter1"/>
            <feGaussianBlur in="shadowOffsetOuter1" result="shadowBlurOuter1" stdDeviation="1.5"/>
            <feComposite in="shadowBlurOuter1" in2="SourceAlpha" operator="out" result="shadowBlurOuter1"/>
            <feColorMatrix in="shadowBlurOuter1" values="0 0 0 0 0 0 0 0 0 0 0 0 0 0 0 0 0 0 0.2 0"/>
        </filter>
        <circle id="092w20ilub" cx="11.467" cy="36.533" r="4.667"/>
    </defs>
    <g fill="none" fill-rule="evenodd">
        <g>
            <g>
                <g transform="translate(-323 -510) translate(290 263) translate(33 247)">
                    <g stroke-width="6">
                        <path stroke="#FE9B57" d="M56.392 55.608C25.464 55.608 0 81.072 0 112" transform="translate(14 14) matrix(1 0 0 -1 0 167.608)"/>
                        <path stroke="#FDD74B" d="M56 112c30.928 0 56-25.072 56-56" transform="translate(14 14)"/>
                        <path stroke="#A2DC57" d="M112 56c0-30.928-25.072-56-56-56" transform="translate(14 14)"/>
                        <path stroke="#FE6A69" d="M56 0C25.072 0 0 25.072 0 56" transform="translate(14 14)"/>
                    </g>
                    <circle cx="70" cy="70" r="67" stroke-width="6"/>
                    <g>
                        <use fill="#000" filter="url(#96j2x6sgja)" xlink:href="#092w20ilub"/>
                        <circle cx="11.467" cy="36.533" r="4.167" fill="#FFF" stroke="#000" stroke-linejoin="square"/>
                    </g>
                    <g>
                        <path fill="#FFF" fill-opacity=".1" d="M0 0H58.8V58.8H0z" transform="translate(41.067 23.333)"/>
                        <g stroke="#747F87" stroke-linecap="round" stroke-linejoin="round" stroke-width=".886">
                            <path d="M11.031 22.182V5.228c0-2.408-1.952-4.36-4.36-4.36-2.407 0-4.359 1.952-4.359 4.36v16.955c-2.691 2.408-2.922 6.542-.514 9.233 2.408 2.692 6.542 2.923 9.233.515 2.691-2.408 2.922-6.542.514-9.233-.16-.18-.332-.353-.514-.515v-.001zm-4.355-7.146v9.808" transform="translate(41.067 23.333) translate(22 12)"/>
                            <path d="M6.676 24.844c1.203 0 2.18.977 2.18 2.18 0 1.203-.977 2.18-2.18 2.18-1.203 0-2.18-.977-2.18-2.18 0-1.203.977-2.18 2.18-2.18h0z" transform="translate(41.067 23.333) translate(22 12)"/>
                        </g>
                    </g>
                    <text fill="#3B3B3B" font-family="Roboto-Regular, Roboto" font-size="13">
                        <tspan x="49.748" y="95.067">44.5°C</tspan>
                    </text>
                </g>
            </g>
        </g>
    </g>
</svg>
