<svg xmlns="http://www.w3.org/2000/svg" xmlns:xlink="http://www.w3.org/1999/xlink" width="142" height="140" viewBox="0 0 142 140">
    <defs>
        <filter id="2c2ncie7ka" width="207.1%" height="207.1%" x="-53.6%" y="-42.9%" filterUnits="objectBoundingBox">
            <feOffset dy="1" in="SourceAlpha" result="shadowOffsetOuter1"/>
            <feGaussianBlur in="shadowOffsetOuter1" result="shadowBlurOuter1" stdDeviation="1.5"/>
            <feComposite in="shadowBlurOuter1" in2="SourceAlpha" operator="out" result="shadowBlurOuter1"/>
            <feColorMatrix in="shadowBlurOuter1" values="0 0 0 0 0 0 0 0 0 0 0 0 0 0 0 0 0 0 0.2 0"/>
        </filter>
        <circle id="ythqtgjnib" cx="133.467" cy="90.533" r="4.667"/>
    </defs>
    <g fill="none" fill-rule="evenodd">
        <g>
            <g>
                <g transform="translate(-323 -290) translate(290 263) translate(33 27)">
                    <g stroke-width="6">
                        <path stroke="#FE9B57" d="M56.392 55.608C25.464 55.608 0 81.072 0 112" transform="translate(14 14) matrix(1 0 0 -1 0 167.608)"/>
                        <path stroke="#FDD74B" d="M56 112c30.928 0 56-25.072 56-56" transform="translate(14 14)"/>
                        <path stroke="#A2DC57" d="M112 56c0-30.928-25.072-56-56-56" transform="translate(14 14)"/>
                        <path stroke="#FE6A69" d="M56 0C25.072 0 0 25.072 0 56" transform="translate(14 14)"/>
                    </g>
                    <circle cx="70" cy="70" r="67" stroke-width="6"/>
                    <g>
                        <use fill="#000" filter="url(#2c2ncie7ka)" xlink:href="#ythqtgjnib"/>
                        <circle cx="133.467" cy="90.533" r="4.167" fill="#FFF" stroke="#000" stroke-linejoin="square"/>
                    </g>
                    <g>
                        <path fill="#FFF" fill-opacity=".1" d="M0 0H58.8V58.8H0z" transform="translate(41.067 23.333)"/>
                        <g stroke="#747F87" stroke-linecap="round" stroke-linejoin="round">
                            <path d="M.044 8.91h15.68m0 0c2.462 0 4.456-1.994 4.456-4.456C20.18 1.994 18.186 0 15.724 0c-1.903 0-3.528 1.194-4.165 2.875M0 18.175h8.42M.356 13.897H23.52M4.337 24.412c.686 1.573 2.255 2.672 4.083 2.672 2.46 0 4.454-1.994 4.454-4.454 0-2.462-1.994-4.456-4.454-4.456m9.586 3.42c.787 2.262 2.94 3.886 5.47 3.886 3.198 0 5.79-2.592 5.79-5.79 0-3.2-2.592-5.792-5.79-5.792" transform="translate(41.067 23.333) translate(14.7 16.333)"/>
                        </g>
                    </g>
                    <text fill="#3B3B3B" font-family="Roboto-Regular, Roboto" font-size="13">
                        <tspan x="58.117" y="95.067">130</tspan>
                    </text>
                </g>
            </g>
        </g>
    </g>
</svg>
