<svg xmlns="http://www.w3.org/2000/svg" xmlns:xlink="http://www.w3.org/1999/xlink" width="140" height="140" viewBox="0 0 140 140">
    <defs>
        <filter id="nry294o1ma" width="207.1%" height="207.1%" x="-53.6%" y="-42.9%" filterUnits="objectBoundingBox">
            <feOffset dy="1" in="SourceAlpha" result="shadowOffsetOuter1"/>
            <feGaussianBlur in="shadowOffsetOuter1" result="shadowBlurOuter1" stdDeviation="1.5"/>
            <feComposite in="shadowBlurOuter1" in2="SourceAlpha" operator="out" result="shadowBlurOuter1"/>
            <feColorMatrix in="shadowBlurOuter1" values="0 0 0 0 0 0 0 0 0 0 0 0 0 0 0 0 0 0 0.2 0"/>
        </filter>
        <circle id="b839w6c6db" cx="126.467" cy="35.533" r="4.667"/>
    </defs>
    <g fill="none" fill-rule="evenodd">
        <g>
            <g>
                <g transform="translate(-683 -290) translate(290 263) translate(393 27)">
                    <g stroke-width="6">
                        <path stroke="#FE9B57" d="M56.392 55.608C25.464 55.608 0 81.072 0 112" transform="translate(14 14) matrix(1 0 0 -1 0 167.608)"/>
                        <path stroke="#FDD74B" d="M56 112c30.928 0 56-25.072 56-56" transform="translate(14 14)"/>
                        <path stroke="#A2DC57" d="M112 56c0-30.928-25.072-56-56-56" transform="translate(14 14)"/>
                        <path stroke="#FE6A69" d="M56 0C25.072 0 0 25.072 0 56" transform="translate(14 14)"/>
                    </g>
                    <circle cx="70" cy="70" r="67" stroke-width="6"/>
                    <g>
                        <use fill="#000" filter="url(#nry294o1ma)" xlink:href="#b839w6c6db"/>
                        <circle cx="126.467" cy="35.533" r="4.167" fill="#FFF" stroke="#000" stroke-linejoin="square"/>
                    </g>
                    <g>
                        <path fill="#FFF" fill-opacity=".1" d="M0 0H58.8V58.8H0z" transform="translate(41.067 23.333)"/>
                        <g stroke="#747F87" transform="translate(41.067 23.333) translate(15 12)">
                            <path stroke-width=".889" d="M19.904 13.785L7.231 13.785 7.231 21.209 0.76 34.209 26.858 33.377 19.904 21.209z"/>
                            <path d="M8.832 5.445c-.336 0-.642.137-.863.358-.22.221-.358.527-.358.865 0 .336.137.642.358.863.221.221.527.358.863.358.338 0 .643-.137.865-.358.221-.222.359-.527.359-.863 0-.337-.138-.643-.36-.864-.221-.222-.527-.36-.864-.36v.001z"/>
                            <circle cx="14" cy="10.111" r="1.222"/>
                            <path stroke-width=".889" d="M17.876.222c-.946 0-1.804.385-2.425 1.007-.621.62-1.007 1.478-1.007 2.423 0 .947.385 1.804 1.006 2.426.622.62 1.48 1.006 2.426 1.006.946 0 1.803-.385 2.424-1.006s1.006-1.48 1.006-2.426c0-.945-.385-1.803-1.006-2.424-.621-.62-1.48-1.006-2.424-1.006z"/>
                            <path stroke-linecap="square" stroke-width=".889" d="M4.587 27.334L22.611 27.334"/>
                        </g>
                    </g>
                    <text fill="#3B3B3B" font-family="Roboto-Regular, Roboto" font-size="13">
                        <tspan x="37.078" y="95.067">0.4 mg/m3</tspan>
                    </text>
                </g>
            </g>
        </g>
    </g>
</svg>
