<svg xmlns="http://www.w3.org/2000/svg" width="14" height="14" viewBox="0 0 14 14">
    <g fill="none" fill-rule="evenodd">
        <g>
            <g>
                <path stroke="#585C64" d="M11 1.5c.69 0 1.315.28 1.768.732.452.453.732 1.078.732 1.768h0v9.5h-10v-12H11zM3.5.5L3.5 13.5.5 13.5.5.5z" transform="translate(-28 -204) translate(28 204)"/>
                <path fill="#585C64" d="M4 5H13V6H4zM5 7H6V8H5zM7 7H8V8H7zM9 7H10V8H9zM11 7H12V8H11z" transform="translate(-28 -204) translate(28 204)"/>
            </g>
        </g>
    </g>
</svg>
