<svg xmlns="http://www.w3.org/2000/svg" width="14" height="14" viewBox="0 0 14 14">
    <g fill="none" fill-rule="evenodd">
        <g stroke="#585C64">
            <g>
                <g>
                    <path d="M10 .5H4c-.966 0-1.841.392-2.475 1.025C.892 2.16.5 3.034.5 4v6c0 .966.392 1.841 1.025 2.475C2.16 13.108 3.034 13.5 4 13.5h6c.966 0 1.841-.392 2.475-1.025.633-.634 1.025-1.509 1.025-2.475V4c0-.966-.392-1.841-1.025-2.475C11.84.892 10.966.5 10 .5z" transform="translate(-28 -296) translate(0 285) translate(28 11)"/>
                    <path d="M7 3.5c-.966 0-1.841.392-2.475 1.025C3.892 5.16 3.5 6.034 3.5 7c0 .966.392 1.841 1.025 2.475C5.16 10.108 6.034 10.5 7 10.5c.966 0 1.841-.392 2.475-1.025C10.108 8.84 10.5 7.966 10.5 7c0-.966-.392-1.841-1.025-2.475C8.84 3.892 7.966 3.5 7 3.5z" transform="translate(-28 -296) translate(0 285) translate(28 11)"/>
                </g>
            </g>
        </g>
    </g>
</svg>
