<svg xmlns="http://www.w3.org/2000/svg" width="36" height="36" viewBox="0 0 36 36">
    <g fill="none" fill-rule="evenodd">
        <g>
            <g>
                <path fill="#FFF" fill-opacity=".1" d="M0 0H36V36H0z" transform="translate(-892 -49) translate(892 49)"/>
                <g stroke="#747F87" stroke-linecap="round" stroke-linejoin="round">
                    <path d="M.027 5.455h9.6m0 0c1.507 0 2.728-1.221 2.728-2.728C12.355 1.221 11.134 0 9.627 0c-1.165 0-2.16.731-2.55 1.76M0 11.127h5.155M.218 8.509H14.4M2.655 14.946c.42.963 1.381 1.636 2.5 1.636 1.506 0 2.727-1.221 2.727-2.727 0-1.507-1.221-2.728-2.727-2.728m5.869 2.094c.482 1.385 1.8 2.379 3.349 2.379 1.958 0 3.545-1.587 3.545-3.545 0-1.959-1.587-3.546-3.545-3.546" transform="translate(-892 -49) translate(892 49) translate(9 10)"/>
                </g>
            </g>
        </g>
    </g>
</svg>
