<svg xmlns="http://www.w3.org/2000/svg" width="36" height="36" viewBox="0 0 36 36">
    <g fill="none" fill-rule="evenodd">
        <g>
            <g>
                <path fill="#FFF" fill-opacity=".1" d="M0 0H36V36H0z" transform="translate(-807 -49) translate(807 49)"/>
                <g stroke="#747F87" stroke-linecap="round" stroke-linejoin="round">
                    <path d="M2.503 5.029H.686c-.379 0-.686.307-.686.685V9.83c0 .378.307.685.686.685h1.817c1.03 2.638 3.45 4.477 6.267 4.763.377.037.713-.239.75-.616.002-.021.004-.043.004-.066V.948c0-.378-.307-.686-.686-.686-.023 0-.046.001-.068.004C5.953.552 3.533 2.391 2.503 5.03v-.001zm12.549 5.988c1.264-1.98 1.264-4.512 0-6.491M12.4 9.82c.951-1.172.951-2.85 0-4.023" transform="translate(-807 -49) translate(807 49) translate(10 10)"/>
                </g>
            </g>
        </g>
    </g>
</svg>
