<svg xmlns="http://www.w3.org/2000/svg" width="150" height="71" viewBox="0 0 150 71">
    <g fill="none" fill-rule="evenodd">
        <g>
            <g>
                <g fill-rule="nonzero">
                    <path fill="#0F7FD3" d="M23.766 23.833c1.234-1.32 2.792-1.98 4.74-2.014 1.754-.066 3.052-.759 4.026-2.211.942-1.42 1.137-3.202.423-4.787-.682-1.584-2.078-2.673-3.767-2.938-.26-.033-.487-.066-.746-.066-2.695 0-4.87 2.18-4.936 4.952-.032 1.452-.357 2.64-1.038 3.631-1.364 2.08-3.28 3.169-5.747 3.202h-.065c-1.331-.066-2.435-.396-3.377-1.056-2.045-1.387-3.117-3.367-3.15-5.876v-.099c.098-1.849.748-3.367 1.981-4.555 1.234-1.32 2.793-1.981 4.74-2.014 1.754-.066 3.053-.76 4.027-2.212.941-1.42 1.136-3.202.422-4.786C20.617 1.419 19.22.33 17.532.066 17.272.033 17.045 0 16.786 0c-2.695 0-4.87 2.179-4.935 4.951-.033 1.453-.357 2.641-1.04 3.632-1.363 2.08-3.311 3.168-5.779 3.201-.616 0-1.233.133-1.818.397-.552.23-1.039.56-1.428.957-.552.528-.942 1.188-1.202 1.881v.033c-.292.727-.357 1.486-.26 2.278v.033c.13 1.155.618 2.179 1.364 2.905l.033.033c.454.495 1.006.858 1.656 1.122h.032c.617.264 1.299.396 1.948.33h.065c1.786.1 3.28.76 4.448 1.981 1.234 1.221 1.883 2.707 1.98 4.588v.066c-.032 1.486.52 2.905 1.527 3.763 1.266 1.123 2.63 1.585 4.058 1.354h.033c1.103-.165 2.11-.66 2.89-1.453.324-.33.616-.726.81-1.155.26-.495.423-1.023.488-1.584.032-.297.065-.562.065-.859v-.066c.162-1.782.811-3.334 2.045-4.555z" transform="translate(-35 -50) translate(35 50) translate(50)"/>
                    <path fill="#00A6EF" d="M49.996 28.48c-.162-2.18-1.169-3.698-3.02-4.49-.681-.297-1.363-.43-2.012-.43-1.202 0-2.338.496-3.41 1.52-1.363 1.32-2.954 1.947-4.675 1.914h-.097c-.552 0-1.071-.066-1.558-.198-.78-.198-1.137-1.156-.715-1.816 1.364-2.08 3.312-3.169 5.78-3.202.616 0 1.233-.132 1.818-.396.552-.23 1.039-.561 1.428-.957.552-.528.942-1.188 1.202-1.882v-.033c.292-.726.357-1.485.26-2.277V16.2c-.13-1.156-.618-2.179-1.364-2.905l-.033-.033c-.454-.495-1.006-.858-1.656-1.123h-.032c-.617-.264-1.299-.396-1.948-.33h-.065c-1.786-.099-3.28-.759-4.448-1.98-1.234-1.222-1.883-2.707-1.98-4.589v-.066c.032-1.485-.52-2.904-1.527-3.763C30.678.29 29.314-.173 27.886.058h-.033c-1.103.165-2.11.66-2.89 1.452-.324.33-.616.727-.81 1.156-.26.495-.423 1.023-.488 1.584-.032.297-.065.561-.065.858v.066c-.065 1.882-.747 3.433-1.98 4.622-1.234 1.32-2.793 1.98-4.74 2.013-1.754.066-3.053.76-4.027 2.212-.941 1.42-1.136 3.202-.422 4.786.682 1.585 2.078 2.674 3.767 2.938.26.033.487.066.746.066 2.695 0 4.87-2.178 4.935-4.951.033-1.453.358-2.64 1.04-3.631 1.363-2.08 3.279-3.17 5.746-3.202h.065c1.331.066 2.435.396 3.377 1.056 2.045 1.387 3.117 3.367 3.149 5.876v.066c-.097 1.848-.747 3.367-1.98 4.555-1.234 1.32-2.793 1.98-4.74 2.014-1.754.066-3.053.76-4.027 2.211-.941 1.42-1.136 3.202-.454 4.787.617 1.42 1.818 2.443 3.246 2.839.455.132.91.198 1.364.198 1.266 0 2.5-.495 3.442-1.42 1.006-.99 2.078-1.584 3.279-1.848.52-.1 1.039-.165 1.558-.165 1.786 0 3.41.693 4.773 2.046.877.859 2.11 1.354 3.377 1.354.714 0 1.428-.165 2.078-.462 1.753-.859 2.954-2.806 2.824-4.655v.001z" transform="translate(-35 -50) translate(35 50) translate(50)"/>
                </g>
                <g>
                    <path fill="#00A6EF" fill-rule="nonzero" d="M4.942 2.986h7.31l.204-1.388-7.222-.392c-1.754-.09-3.012.754-3.392 3.077L.088 15.653c-.351 2.231 1.14 3.076 2.66 2.985l7.135-.392.234-1.357H3.041c-.673 0-1.433.03-1.257-1.237l.73-4.735 7.603-.24.234-1.388-7.544-.241.731-4.735c.088-.634.322-1.327 1.404-1.327zM20.468 5.79c-1.872 0-3.246.845-4.795 1.69l-.264-1.478h-1.198l-1.93 12.606h1.696l1.49-9.711c1.901-.875 2.866-1.357 4.708-1.357 1.17 0 1.96.723 1.726 2.292l-1.345 8.776h1.695l1.345-8.776c.351-2.111-.701-4.042-3.128-4.042zm6.696 8.324L29.327 0h-1.695l-2.164 14.114c-.468 3.076.41 4.494 2.602 4.494h1.58l.204-1.327c-.03 0-1.725-.422-1.725-.422-.907-.211-1.345-.392-.965-2.745zm3.742 4.494h1.696l1.93-12.606h-1.696l-1.93 12.606zm3.948-16.497h-1.14c-.38 0-.585.241-.644.603l-.175 1.297c-.059.332.146.543.468.543h1.14c.322 0 .585-.181.614-.543l.175-1.297c.03-.331-.087-.603-.438-.603zm5.526 3.86l.526-3.498H39.62l-.936 3.498-2.339.423-.205 1.327h2.281l-.965 6.393c-.468 3.076.38 4.494 2.632 4.494h1.579l.175-1.327c-.03 0-1.725-.422-1.725-.422-.906-.211-1.287-.392-.936-2.745l.965-6.393h3.567l.264-1.75H40.38zm10.439-.211c-4.474 0-5.351 2.383-6.082 6.243-.819 4.614-.059 6.756 2.895 6.756 1.9 0 3.83-.151 5.76-.694l.175-1.327c-1.783.272-3.976.483-5.73.332-1.638-.03-2.077-.935-1.58-3.86.848.361 8.304 1.387 8.948-3.83.35-2.745-1.492-3.62-4.386-3.62zm2.69 3.65c-.351 2.201-3.421 2.593-5.41 2.623-.877 0-1.55-.874-1.286-1.749.41-1.508 1.228-2.744 3.918-2.744 2.047-.03 3.07.18 2.778 1.87z" transform="translate(-35 -50) translate(35 50) translate(0 52)"/>
                    <path d="M100.35 10.163c.147-.965-.32-1.206-1.286-1.176-1.55.03-1.783 1.146-1.988 2.413 0 0 2.953.633 3.275-1.237h-.001zm11.463-1.176c-.848.181-1.638.513-1.988 3.076-.293 1.96-.293 3.408.964 3.408 1.112 0 1.696-.422 2.106-1.146l.76-5.157c-.497-.241-1.287-.331-1.842-.18v-.001zM64.795 4.403h-1.9c-.644 0-1.228.483-1.316 1.176l-.439 2.896c-.029.18.03.362.117.482.117.12.263.211.439.211h2.368c1.433 0 1.872-.965 2.047-2.412.117-1.026.03-1.599-.263-1.96-.205-.272-.526-.393-1.053-.393z" transform="translate(-35 -50) translate(35 50) translate(0 52)"/>
                    <path fill="#0F7FD3" fill-rule="nonzero" d="M65.731 1.417h-5.79c-.643 0-1.228.483-1.315 1.177l-2.398 15.592c0 .06 0 .12.03.15.029.03.087.06.146.06h2.017c.643 0 1.228-.482 1.316-1.175l.76-4.977c.059-.301.322-.542.614-.512l1.17.12c.234.03.468.211.526.453l1.462 5.127c.175.573.702.995 1.287.995h2.602c.058 0 .117-.03.146-.09.03-.06.059-.121.03-.181l-2.018-5.76c-.059-.152-.059-.333.029-.483.088-.151.205-.272.38-.302 1.52-.362 2.427-1.84 2.807-4.463.293-2.021.03-3.529-.79-4.494-.643-.814-1.666-1.237-3.011-1.237zm.41 5.308c-.205 1.448-.615 2.413-2.047 2.413h-2.398c-.176 0-.322-.09-.439-.211-.117-.12-.146-.302-.117-.483l.439-2.895c.117-.663.672-1.176 1.316-1.176h1.9c.527 0 .848.12 1.082.392.293.362.38.965.263 1.96h.001z" transform="translate(-35 -50) translate(35 50) translate(0 52)"/>
                    <path d="M74.327 11.581c.264.03.498.06.731.06 1.433 0 2.31-.573 2.486-1.568.088-.483.03-.814-.176-1.086-.233-.271-.614-.392-1.228-.392h-.117c-1.637.03-1.988 1.146-2.222 2.292-.03.151 0 .332.088.483.117.09.263.18.438.211z" transform="translate(-35 -50) translate(35 50) translate(0 52)"/>
                    <path fill="#0F7FD3" fill-rule="nonzero" d="M78.158 15.833s0-.03 0 0c-.907.06-1.813.121-2.485.121h-.205c-.965 0-1.491-.15-1.784-.483-.234-.271-.321-.633-.292-1.206.03-.362.38-.603.702-.543.263.06.964.211 1.842.211 1.842 0 4.912-.603 5.087-4.584.03-.935-.204-1.659-.701-2.232-.731-.814-2.047-1.206-3.918-1.206h-.117c-4.386.03-5.38 1.599-6.053 5.368-.526 2.865-.322 4.916.555 6.092.527.694 1.316 1.086 2.34 1.146 1.842.151 3.45.03 5-.301-.351-.664-.351-1.568.029-2.383zm-2.135-7.238h.117c.614 0 .995.12 1.228.392.205.242.264.603.176 1.086-.176 1.025-1.053 1.568-2.486 1.568-.233 0-.497-.03-.73-.06-.147-.03-.293-.12-.41-.241-.088-.121-.146-.302-.088-.483.205-1.146.556-2.262 2.193-2.262zm9.913-2.533c-2.106 0-3.217.905-3.538 2.955l-.176 1.116c-.175 1.116.03 2.051.556 2.684.497.604 1.316.935 2.339.935h2.485c.322 0 .527.06.673.242.146.18.146.452.117.633l-.059.392c-.087.513-.409.784-.935.784h-4.533c.264.603.322 1.297.117 2.051-.029.15-.058.302-.087.422 1.403.241 3.596.241 5.468.241 1.345 0 2.953-.331 3.304-2.834l.234-1.418c.146-1.055-.03-1.99-.556-2.594-.468-.573-1.199-.844-2.134-.844h-2.778c-.146 0-.41 0-.556-.211-.117-.15-.146-.362-.088-.664l.03-.392c.087-.603.41-.844 1.052-.844h4.942c.088 0 .175-.06.175-.181l.293-1.81c0-.09-.03-.15-.088-.21-.936-.453-3.772-.453-6.257-.453zm41.432.151c-.029-.03-.087-.06-.146-.09-.234-.03-.497-.03-.79-.03-1.169 0-2.134.632-2.748 1.175-.117.09-.234.151-.38.151-.292 0-.526-.211-.555-.482l-.03-.181c-.058-.302-.292-.513-.584-.513h-2.252c-.088 0-.175.06-.175.18l-.147.996-1.666 10.827c0 .06 0 .12.029.15.03.031.088.061.146.061h2.983c.087 0 .175-.06.175-.18l1.082-7.058c0-.06.03-.15.058-.211.702-1.327 1.784-1.448 2.954-1.448h1.082c.292 0 .555-.21.614-.512l.409-2.654c0-.09-.03-.151-.059-.181zm8.042 11.822c.146-.06.292-.09.467-.15.205-.061.351-.272.38-.483l.059-.453c-.088.513-.439.935-.907 1.086h.001z" transform="translate(-35 -50) translate(35 50) translate(0 52)"/>
                    <path fill="#0F7FD3" fill-rule="nonzero" d="M137.544 6.665c-1.725-.543-4.21-.694-5.293-.694-1.988 0-3.976.453-4.795 5.821-.41 2.654-.175 4.645.731 5.73.526.634 1.257.965 2.164.995h1.959c.146 0 .292 0 .439-.03.087 0 .175 0 .263-.03.117 0 .263-.03.38-.03.088 0 .175-.03.263-.03.117 0 .234-.03.35-.06.089 0 .176-.03.235-.03.117-.03.234-.03.321-.061.088-.03.147-.03.234-.06l.351-.09c.059-.03.146-.03.205-.061.03 0 .03 0 .058-.03.468-.151.848-.573.907-1.086l.146-.935c0-.09-.03-.12-.03-.15-.028-.03-.087-.061-.145-.061-.731.06-2.164.181-3.626.181-.76 0-1.316-.09-1.638-.483-.409-.482-.438-1.357-.146-3.136.556-3.438 1.14-3.74 2.866-3.74 1.49 0 2.865.09 3.538.151.117 0 .175-.06.204-.18l.264-1.66c-.059-.09-.117-.21-.205-.24v-.001zm-1.228 10.254l.146-.935-.146.935zm12.836-10.103c-.468-.543-1.199-.814-2.28-.814-1.433 0-2.37.482-3.07.965-.235.15-.586.12-.761-.121-.117-.12-.146-.302-.117-.483l.906-5.88c0-.06 0-.121-.029-.151-.03-.03-.088-.06-.146-.06h-3.012c-.087 0-.175.06-.175.18l-.146.996-2.573 16.768c0 .06 0 .12.029.15s.087.061.146.061h2.982c.088 0 .176-.06.205-.181l.41-2.563.847-5.49c.147-.27.293-.542.439-.814.058-.06.146-.12.205-.15.087-.06.146-.121.234-.151l.35-.181c.088-.03.147-.06.234-.09.147-.061.264-.091.41-.121.058 0 .146-.03.204-.06.234-.03.439-.06.702-.06.38 0 .643.12.848.33.234.272.293.725.205 1.418L145 18.156c0 .06 0 .12.03.15.028.03.087.06.145.06h2.983c.088 0 .175-.06.205-.18l.146-.996 1.052-6.936c.293-1.659.147-2.775-.409-3.438z" transform="translate(-35 -50) translate(35 50) translate(0 52)"/>
                    <path fill="#00A6EF" fill-rule="nonzero" d="M81.52 16.105c-.438-.422-1.081-.513-1.608-.242-.146.06-.292.181-.41.302-.438.483-.496 1.146-.204 1.689.059.12.146.271.263.392.556.573 1.462.543 2.018-.06.058-.06.088-.151.146-.211.263-.423.322-.965.117-1.418-.117-.18-.205-.332-.322-.452z" transform="translate(-35 -50) translate(35 50) translate(0 52)"/>
                    <path fill="#0F7FD3" fill-rule="nonzero" d="M112.193 6.092c-.088 0-.146-.03-.263-.03-.117 0-.263 0-.41.03-.146.03-.263.059-.38.059.322-.03.644-.06.936-.06h.117v.001z" transform="translate(-35 -50) translate(35 50) translate(0 52)"/>
                    <path fill="#0F7FD3" fill-rule="nonzero" d="M112.193 6.092h-.117c-.322 0-.614.03-.936.06-1.432.151-2.894.634-3.918 2.564-.087.12-.175.211-.234.332-.965 1.568-1.9 3.136-2.777 4.584 0 0 0 .03-.03.03-.643 1.025-1.754 1.659-2.924 1.78-.965.09-1.988.18-2.69.15-1.55 0-1.988-.332-1.754-1.84.819.332 7.017 1.418 7.251-4.222.147-2.805-2.28-3.498-4.707-3.468-4.299.03-5.293 1.598-5.965 5.278-.79 4.403.146 6.966 2.953 7.147 1.871.151 4.064-.09 5.643-.392.351-.06.702-.15.994-.21h.03c.029 0 .029-.031.058-.031 1.228-.422 2.28-1.297 3.07-2.533.03-.03.03-.06.059-.09.35 2.2 1.579 3.256 3.1 3.256 1.286 0 2.777-.512 3.333-1.357l.555 1.176h2.807l1.55-10.827c-1.17-1.055-3.626-1.417-5.351-1.387zM99.064 8.987c.965-.03 1.433.242 1.287 1.176-.322 1.87-3.275 1.237-3.275 1.237.205-1.297.439-2.413 1.988-2.413zm13.83 5.308c-.409.724-1.023 1.146-2.105 1.146-1.257 0-1.257-1.417-.964-3.408.38-2.563 1.17-2.895 1.988-3.076.555-.15 1.345-.06 1.813.15l-.731 5.188h-.001z" transform="translate(-35 -50) translate(35 50) translate(0 52)"/>
                </g>
            </g>
        </g>
    </g>
</svg>
